<svg width="71" height="66" viewBox="0 0 71 66" fill="none" xmlns="http://www.w3.org/2000/svg">
<g filter="url(#filter0_bd_40_17)">
<rect x="12" y="8" width="47" height="42" rx="5" fill="url(#paint0_linear_40_17)" shape-rendering="crispEdges"/>
</g>
<path d="M38 23V38.4648C38 38.6294 38.0406 38.7915 38.1183 38.9367C38.196 39.0818 38.3083 39.2055 38.4453 39.2969L39.8193 40.2129C39.9527 40.3018 40.1054 40.3573 40.2647 40.3748C40.424 40.3924 40.5851 40.3713 40.7346 40.3135C40.8841 40.2558 41.0175 40.1629 41.1236 40.0428C41.2296 39.9227 41.3053 39.7788 41.3442 39.6234L43 33" stroke="url(#paint1_linear_40_17)" stroke-width="2" stroke-linecap="round" stroke-linejoin="round"/>
<path d="M43 33C44.3261 33 45.5979 32.4732 46.5355 31.5355C47.4732 30.5979 48 29.3261 48 28C48 26.6739 47.4732 25.4021 46.5355 24.4645C45.5979 23.5268 44.3261 23 43 23H38C38 23 31.1935 23 24.6436 17.5065C24.4979 17.3839 24.3203 17.3055 24.1316 17.2804C23.9428 17.2553 23.7508 17.2846 23.5782 17.3649C23.4055 17.4452 23.2594 17.5731 23.157 17.7336C23.0546 17.8941 23.0001 18.0805 23 18.2709V37.729C23.0001 37.9194 23.0546 38.1059 23.157 38.2664C23.2594 38.4269 23.4055 38.5548 23.5782 38.6351C23.7508 38.7154 23.9428 38.7447 24.1316 38.7196C24.3203 38.6945 24.4979 38.6161 24.6436 38.4935C31.1935 33 38 33 38 33H43Z" stroke="url(#paint2_linear_40_17)" stroke-width="2" stroke-linecap="round" stroke-linejoin="round"/>
<defs>
<filter id="filter0_bd_40_17" x="0" y="0" width="71" height="66" filterUnits="userSpaceOnUse" color-interpolation-filters="sRGB">
<feFlood flood-opacity="0" result="BackgroundImageFix"/>
<feGaussianBlur in="BackgroundImageFix" stdDeviation="0.25"/>
<feComposite in2="SourceAlpha" operator="in" result="effect1_backgroundBlur_40_17"/>
<feColorMatrix in="SourceAlpha" type="matrix" values="0 0 0 0 0 0 0 0 0 0 0 0 0 0 0 0 0 0 127 0" result="hardAlpha"/>
<feMorphology radius="2" operator="dilate" in="SourceAlpha" result="effect2_dropShadow_40_17"/>
<feOffset dy="4"/>
<feGaussianBlur stdDeviation="5"/>
<feComposite in2="hardAlpha" operator="out"/>
<feColorMatrix type="matrix" values="0 0 0 0 0 0 0 0 0 0 0 0 0 0 0 0 0 0 0.04 0"/>
<feBlend mode="normal" in2="effect1_backgroundBlur_40_17" result="effect2_dropShadow_40_17"/>
<feBlend mode="normal" in="SourceGraphic" in2="effect2_dropShadow_40_17" result="shape"/>
</filter>
<linearGradient id="paint0_linear_40_17" x1="35.5" y1="8" x2="35.5" y2="50" gradientUnits="userSpaceOnUse">
<stop stop-color="white" stop-opacity="0.35"/>
<stop offset="1" stop-color="white" stop-opacity="0.1"/>
</linearGradient>
<linearGradient id="paint1_linear_40_17" x1="40.5" y1="23" x2="45.1651" y2="25.1237" gradientUnits="userSpaceOnUse">
<stop stop-color="#FFAB00"/>
<stop offset="1" stop-color="#FFEAC0"/>
</linearGradient>
<linearGradient id="paint2_linear_40_17" x1="35.5" y1="17.2717" x2="41.9008" y2="29.073" gradientUnits="userSpaceOnUse">
<stop stop-color="#FFAB00"/>
<stop offset="1" stop-color="#FFEAC0"/>
</linearGradient>
</defs>
</svg>
