<svg width="71" height="66" viewBox="0 0 71 66" fill="none" xmlns="http://www.w3.org/2000/svg">
<g filter="url(#filter0_bd_1_12)">
<rect x="12" y="8" width="47" height="42" rx="5" fill="url(#paint0_linear_1_12)" shape-rendering="crispEdges"/>
</g>
<path d="M29.5 17V22" stroke="url(#paint1_linear_1_12)" stroke-width="2" stroke-linecap="round" stroke-linejoin="round"/>
<path d="M29.5 27.5V41" stroke="url(#paint2_linear_1_12)" stroke-width="2" stroke-linecap="round" stroke-linejoin="round"/>
<path d="M33 17L34 23C34 24.1935 33.5259 25.3381 32.682 26.182C31.8381 27.0259 30.6935 27.5 29.5 27.5C28.3065 27.5 27.1619 27.0259 26.318 26.182C25.4741 25.3381 25 24.1935 25 23L26 17" stroke="url(#paint3_linear_1_12)" stroke-width="2" stroke-linecap="round" stroke-linejoin="round"/>
<path d="M44.5 33H37.5C37.5 33 39 19 44.5 17V41" stroke="url(#paint4_linear_1_12)" stroke-width="2" stroke-linecap="round" stroke-linejoin="round"/>
<defs>
<filter id="filter0_bd_1_12" x="0" y="0" width="71" height="66" filterUnits="userSpaceOnUse" color-interpolation-filters="sRGB">
<feFlood flood-opacity="0" result="BackgroundImageFix"/>
<feGaussianBlur in="BackgroundImageFix" stdDeviation="0.25"/>
<feComposite in2="SourceAlpha" operator="in" result="effect1_backgroundBlur_1_12"/>
<feColorMatrix in="SourceAlpha" type="matrix" values="0 0 0 0 0 0 0 0 0 0 0 0 0 0 0 0 0 0 127 0" result="hardAlpha"/>
<feMorphology radius="2" operator="dilate" in="SourceAlpha" result="effect2_dropShadow_1_12"/>
<feOffset dy="4"/>
<feGaussianBlur stdDeviation="5"/>
<feComposite in2="hardAlpha" operator="out"/>
<feColorMatrix type="matrix" values="0 0 0 0 0 0 0 0 0 0 0 0 0 0 0 0 0 0 0.04 0"/>
<feBlend mode="normal" in2="effect1_backgroundBlur_1_12" result="effect2_dropShadow_1_12"/>
<feBlend mode="normal" in="SourceGraphic" in2="effect2_dropShadow_1_12" result="shape"/>
</filter>
<linearGradient id="paint0_linear_1_12" x1="35.5" y1="8" x2="35.5" y2="50" gradientUnits="userSpaceOnUse">
<stop stop-color="white" stop-opacity="0.35"/>
<stop offset="1" stop-color="white" stop-opacity="0.1"/>
</linearGradient>
<linearGradient id="paint1_linear_1_12" x1="26.5" y1="20.5" x2="31" y2="18" gradientUnits="userSpaceOnUse">
<stop stop-color="#F0692A"/>
<stop offset="1" stop-color="#EF9E79"/>
</linearGradient>
<linearGradient id="paint2_linear_1_12" x1="30" y1="27.5" x2="30" y2="41" gradientUnits="userSpaceOnUse">
<stop stop-color="#F0692A"/>
<stop offset="1" stop-color="#FFA57B" stop-opacity="0.24"/>
</linearGradient>
<linearGradient id="paint3_linear_1_12" x1="29.5" y1="17" x2="29.5" y2="27.5" gradientUnits="userSpaceOnUse">
<stop stop-color="#F0692A"/>
<stop offset="1" stop-color="#FFA57B" stop-opacity="0.24"/>
</linearGradient>
<linearGradient id="paint4_linear_1_12" x1="41" y1="17" x2="47.5" y2="20" gradientUnits="userSpaceOnUse">
<stop stop-color="#F0692A"/>
<stop offset="0.898931" stop-color="#FDBB9C"/>
</linearGradient>
</defs>
</svg>
