<svg width="71" height="66" viewBox="0 0 71 66" fill="none" xmlns="http://www.w3.org/2000/svg">
<g filter="url(#filter0_bd_1_13)">
<rect x="12" y="8" width="47" height="42" rx="5" fill="url(#paint0_linear_1_13)" shape-rendering="crispEdges"/>
</g>
<path d="M35.7071 39.4853L45.8361 29.3563C48.3249 26.8675 48.6921 22.773 46.3369 20.1575C45.7469 19.5004 45.0293 18.9705 44.2278 18.5999C43.4262 18.2294 42.5576 18.0261 41.6749 18.0023C40.7922 17.9786 39.9139 18.135 39.0936 18.4619C38.2733 18.7888 37.5282 19.2794 36.9038 19.9038L35 21.8076L33.3563 20.1639C30.8675 17.6751 26.773 17.3079 24.1575 19.6631C23.5004 20.2531 22.9705 20.9707 22.6 21.7722C22.2294 22.5738 22.0261 23.4424 22.0023 24.3251C21.9786 25.2078 22.135 26.0861 22.4619 26.9064C22.7888 27.7267 23.2794 28.4718 23.9038 29.0962L34.2929 39.4853C34.4804 39.6728 34.7348 39.7782 35 39.7782C35.2652 39.7782 35.5196 39.6728 35.7071 39.4853V39.4853Z" stroke="url(#paint1_linear_1_13)" stroke-width="2" stroke-linecap="round" stroke-linejoin="round"/>
<defs>
<filter id="filter0_bd_1_13" x="0" y="0" width="71" height="66" filterUnits="userSpaceOnUse" color-interpolation-filters="sRGB">
<feFlood flood-opacity="0" result="BackgroundImageFix"/>
<feGaussianBlur in="BackgroundImageFix" stdDeviation="0.25"/>
<feComposite in2="SourceAlpha" operator="in" result="effect1_backgroundBlur_1_13"/>
<feColorMatrix in="SourceAlpha" type="matrix" values="0 0 0 0 0 0 0 0 0 0 0 0 0 0 0 0 0 0 127 0" result="hardAlpha"/>
<feMorphology radius="2" operator="dilate" in="SourceAlpha" result="effect2_dropShadow_1_13"/>
<feOffset dy="4"/>
<feGaussianBlur stdDeviation="5"/>
<feComposite in2="hardAlpha" operator="out"/>
<feColorMatrix type="matrix" values="0 0 0 0 0 0 0 0 0 0 0 0 0 0 0 0 0 0 0.04 0"/>
<feBlend mode="normal" in2="effect1_backgroundBlur_1_13" result="effect2_dropShadow_1_13"/>
<feBlend mode="normal" in="SourceGraphic" in2="effect2_dropShadow_1_13" result="shape"/>
</filter>
<linearGradient id="paint0_linear_1_13" x1="35.5" y1="8" x2="35.5" y2="50" gradientUnits="userSpaceOnUse">
<stop stop-color="white" stop-opacity="0.35"/>
<stop offset="1" stop-color="white" stop-opacity="0.1"/>
</linearGradient>
<linearGradient id="paint1_linear_1_13" x1="34.9588" y1="18" x2="41.3799" y2="30.0921" gradientUnits="userSpaceOnUse">
<stop stop-color="#FFAB00"/>
<stop offset="1" stop-color="#FFEAC0"/>
</linearGradient>
</defs>
</svg>
