<svg width="71" height="66" viewBox="0 0 71 66" fill="none" xmlns="http://www.w3.org/2000/svg">
<g filter="url(#filter0_bd_40_2)">
<rect x="12" y="8" width="47" height="42" rx="5" fill="url(#paint0_linear_40_2)" shape-rendering="crispEdges"/>
</g>
<path d="M48 21H22C21.4477 21 21 21.4477 21 22V36C21 36.5523 21.4477 37 22 37H48C48.5523 37 49 36.5523 49 36V22C49 21.4477 48.5523 21 48 21Z" stroke="url(#paint1_linear_40_2)" stroke-width="2" stroke-linecap="round" stroke-linejoin="round"/>
<path d="M35 33C37.2091 33 39 31.2091 39 29C39 26.7909 37.2091 25 35 25C32.7909 25 31 26.7909 31 29C31 31.2091 32.7909 33 35 33Z" stroke="url(#paint2_linear_40_2)" stroke-width="2" stroke-linecap="round" stroke-linejoin="round"/>
<path d="M41 21L49 28" stroke="url(#paint3_linear_40_2)" stroke-width="2" stroke-linecap="round" stroke-linejoin="round"/>
<path d="M41 37L49 30" stroke="url(#paint4_linear_40_2)" stroke-width="2" stroke-linecap="round" stroke-linejoin="round"/>
<path d="M29 21L21 28" stroke="url(#paint5_linear_40_2)" stroke-width="2" stroke-linecap="round" stroke-linejoin="round"/>
<path d="M29 37L21 30" stroke="url(#paint6_linear_40_2)" stroke-width="2" stroke-linecap="round" stroke-linejoin="round"/>
<defs>
<filter id="filter0_bd_40_2" x="0" y="0" width="71" height="66" filterUnits="userSpaceOnUse" color-interpolation-filters="sRGB">
<feFlood flood-opacity="0" result="BackgroundImageFix"/>
<feGaussianBlur in="BackgroundImageFix" stdDeviation="0.25"/>
<feComposite in2="SourceAlpha" operator="in" result="effect1_backgroundBlur_40_2"/>
<feColorMatrix in="SourceAlpha" type="matrix" values="0 0 0 0 0 0 0 0 0 0 0 0 0 0 0 0 0 0 127 0" result="hardAlpha"/>
<feMorphology radius="2" operator="dilate" in="SourceAlpha" result="effect2_dropShadow_40_2"/>
<feOffset dy="4"/>
<feGaussianBlur stdDeviation="5"/>
<feComposite in2="hardAlpha" operator="out"/>
<feColorMatrix type="matrix" values="0 0 0 0 0 0 0 0 0 0 0 0 0 0 0 0 0 0 0.04 0"/>
<feBlend mode="normal" in2="effect1_backgroundBlur_40_2" result="effect2_dropShadow_40_2"/>
<feBlend mode="normal" in="SourceGraphic" in2="effect2_dropShadow_40_2" result="shape"/>
</filter>
<linearGradient id="paint0_linear_40_2" x1="35.5" y1="8" x2="35.5" y2="50" gradientUnits="userSpaceOnUse">
<stop stop-color="white" stop-opacity="0.35"/>
<stop offset="1" stop-color="white" stop-opacity="0.1"/>
</linearGradient>
<linearGradient id="paint1_linear_40_2" x1="53.3077" y1="21.64" x2="31.2015" y2="10.8131" gradientUnits="userSpaceOnUse">
<stop offset="0.364583" stop-color="#36B37E"/>
<stop offset="1" stop-color="#36B37E" stop-opacity="0.42"/>
</linearGradient>
<linearGradient id="paint2_linear_40_2" x1="40.2308" y1="25.32" x2="32.9685" y2="23.2875" gradientUnits="userSpaceOnUse">
<stop offset="0.364583" stop-color="#36B37E"/>
<stop offset="1" stop-color="#36B37E" stop-opacity="0.42"/>
</linearGradient>
<linearGradient id="paint3_linear_40_2" x1="50.2308" y1="21.28" x2="43.1265" y2="19.0077" gradientUnits="userSpaceOnUse">
<stop offset="0.364583" stop-color="#36B37E"/>
<stop offset="1" stop-color="#36B37E" stop-opacity="0.42"/>
</linearGradient>
<linearGradient id="paint4_linear_40_2" x1="50.2308" y1="30.28" x2="43.1265" y2="28.0077" gradientUnits="userSpaceOnUse">
<stop offset="0.364583" stop-color="#36B37E"/>
<stop offset="1" stop-color="#36B37E" stop-opacity="0.42"/>
</linearGradient>
<linearGradient id="paint5_linear_40_2" x1="30.2308" y1="21.28" x2="23.1265" y2="19.0077" gradientUnits="userSpaceOnUse">
<stop offset="0.364583" stop-color="#36B37E"/>
<stop offset="1" stop-color="#36B37E" stop-opacity="0.42"/>
</linearGradient>
<linearGradient id="paint6_linear_40_2" x1="30.2308" y1="30.28" x2="26.9817" y2="24.0795" gradientUnits="userSpaceOnUse">
<stop offset="0.244792" stop-color="#36B37E"/>
<stop offset="1" stop-color="#36B37E" stop-opacity="0.19"/>
</linearGradient>
</defs>
</svg>
