<svg width="71" height="66" viewBox="0 0 71 66" fill="none" xmlns="http://www.w3.org/2000/svg">
<g filter="url(#filter0_bd_2_29)">
<rect x="12" y="8" width="47" height="42" rx="5" fill="url(#paint0_linear_2_29)" shape-rendering="crispEdges"/>
</g>
<path d="M35.5514 36.8416L41.8558 40.8358C42.6617 41.3464 43.6622 40.587 43.4231 39.6463L41.6016 32.481C41.5503 32.2815 41.5564 32.0715 41.6191 31.8752C41.6819 31.6789 41.7987 31.5044 41.9563 31.3716L47.6097 26.6661C48.3525 26.0478 47.9691 24.815 47.0147 24.7531L39.6318 24.2739C39.4329 24.2597 39.2422 24.1893 39.0818 24.0709C38.9214 23.9525 38.7979 23.791 38.7258 23.6051L35.9722 16.671C35.8974 16.4737 35.7643 16.3039 35.5906 16.184C35.417 16.0642 35.211 16 35 16C34.789 16 34.583 16.0642 34.4094 16.184C34.2357 16.3039 34.1026 16.4737 34.0278 16.671L31.2742 23.6051C31.2021 23.791 31.0786 23.9525 30.9182 24.0709C30.7578 24.1893 30.5671 24.2597 30.3682 24.2739L22.9853 24.7531C22.0309 24.815 21.6475 26.0478 22.3903 26.6661L28.0437 31.3716C28.2013 31.5044 28.3181 31.6789 28.3809 31.8752C28.4436 32.0715 28.4497 32.2815 28.3984 32.481L26.7092 39.1261C26.4222 40.2549 27.6229 41.1661 28.5899 40.5534L34.4486 36.8416C34.6134 36.7367 34.8047 36.681 35 36.681C35.1953 36.681 35.3866 36.7367 35.5514 36.8416V36.8416Z" stroke="url(#paint1_linear_2_29)" stroke-width="2" stroke-linecap="round" stroke-linejoin="round"/>
<defs>
<filter id="filter0_bd_2_29" x="0" y="0" width="71" height="66" filterUnits="userSpaceOnUse" color-interpolation-filters="sRGB">
<feFlood flood-opacity="0" result="BackgroundImageFix"/>
<feGaussianBlur in="BackgroundImageFix" stdDeviation="0.25"/>
<feComposite in2="SourceAlpha" operator="in" result="effect1_backgroundBlur_2_29"/>
<feColorMatrix in="SourceAlpha" type="matrix" values="0 0 0 0 0 0 0 0 0 0 0 0 0 0 0 0 0 0 127 0" result="hardAlpha"/>
<feMorphology radius="2" operator="dilate" in="SourceAlpha" result="effect2_dropShadow_2_29"/>
<feOffset dy="4"/>
<feGaussianBlur stdDeviation="5"/>
<feComposite in2="hardAlpha" operator="out"/>
<feColorMatrix type="matrix" values="0 0 0 0 0 0 0 0 0 0 0 0 0 0 0 0 0 0 0.04 0"/>
<feBlend mode="normal" in2="effect1_backgroundBlur_2_29" result="effect2_dropShadow_2_29"/>
<feBlend mode="normal" in="SourceGraphic" in2="effect2_dropShadow_2_29" result="shape"/>
</filter>
<linearGradient id="paint0_linear_2_29" x1="35.5" y1="8" x2="35.5" y2="50" gradientUnits="userSpaceOnUse">
<stop stop-color="white" stop-opacity="0.35"/>
<stop offset="1" stop-color="white" stop-opacity="0.1"/>
</linearGradient>
<linearGradient id="paint1_linear_2_29" x1="52" y1="17" x2="28.5366" y2="10.1707" gradientUnits="userSpaceOnUse">
<stop stop-color="#36B37E"/>
<stop offset="1" stop-color="#36B37E" stop-opacity="0.19"/>
</linearGradient>
</defs>
</svg>
